<svg version="1.1" viewBox="0 0 151 40" xmlns="http://www.w3.org/2000/svg">
 <path d="m30.608 39.965 0.0039216-0.0078432-4.2706-23.91-13.808 23.918h-12.533l23.059-39.949h0.41961 10.773 0.47059l4.4784 25.071 14.471-25.071h12.533l-23.063 39.949h-1.2863-11.243-0.0039216zm28.361-0.027451h-12.651l23.043-39.937h44.141l-0.047059 0.027451-16.345 10.82h-21.361l-2.7686 4.8078h19.663l-12.667 8.3804h-11.827l-2.9333 5.051-4.3922 7.6196-1.8549 3.2314zm70.463-24.251c5.4275 0 7.6431 3.8588 4.9451 8.5686l-4.1412 7.1647c-2.7137 4.6941-9.3569 8.5333-14.796 8.5333h-44.612l16.361-10.835h29.71c1.3166-0.05375 2.5329-0.71776 3.2902-1.7961l1.8784-3.2196h-20.667c-1.2669 0.029187-2.522-0.24795-3.6588-0.80784-2.5765-1.3647-3.2196-4.3294-1.2314-7.7412l0.95686-1.6627 4.5922-3.0392 16.345-10.812h4.0353 28.125l-16.4 10.824h-19.816c-1.4471 0.023529-3.3529 1.2549-4.2196 2.7451l-1.1765 2.0784h20.478z"/>
</svg>
